<?xml version="1.0" standalone="no"?>
<!DOCTYPE svg PUBLIC "-//W3C//DTD SVG 1.0//EN" "http://www.w3.org/TR/2001/REC-SVG-20010904/DTD/svg10.dtd">
<svg xmlns="http://www.w3.org/2000/svg" xmlns:xlink="http://www.w3.org/1999/xlink" id="body_1" width="41" height="31">

<g transform="matrix(0.2421875 0 0 0.2421875 5.000001 -0)">
    <path d="M2.001 90.458L6.1089997 90.458L6.1089997 74.235L12.469 88.378C 13.219 90.09 14.246 90.695 16.261 90.695C 18.276 90.695 19.264 90.09 20.014 88.378L20.014 88.378L26.374 74.235L26.374 90.458L30.482 90.458L30.482 74.262C 30.482 72.682 29.85 71.917 28.546 71.523C 25.425 70.549 23.331 71.392006 22.383 73.499L22.383 73.499L16.141998 87.457L10.098998 73.498C 9.189998 71.392 7.0569983 70.549 3.935998 71.522C 2.632 71.917 2 72.681 2 74.261L2 74.261L2 90.458L2.001 90.458zM33.899002 77.252L38.006 77.252L38.006 86.19C 37.968002 86.675 38.162 87.815 40.412 87.851006C 41.559998 87.869 49.274 87.851006 49.346 87.851006L49.346 87.851006L49.346 77.208L53.463 77.208C 53.482002 77.208 53.459 91.722 53.459 91.782C 53.481 95.362 49.017998 96.139 46.96 96.199L46.96 96.199L33.988 96.199L33.988 93.435C 34.01 93.435 46.951 93.437996 46.982998 93.434C 49.628 93.155 49.315 91.840996 49.314 91.398994L49.314 91.398994L49.314 90.32099L40.583 90.32099C 36.521 90.28399 33.933 88.510994 33.9 86.47099C 33.898003 86.284 33.989002 77.341995 33.899002 77.25199z" stroke="none" fill="#00618A" fill-rule="nonzero" />
    <path d="M56.63 90.458L68.442 90.458C 69.825005 90.458 71.169 90.169 72.235 89.669C 74.012 88.853 74.881 87.747 74.881 86.297L74.881 86.297L74.881 83.295C 74.881 82.11 73.894 81.003 71.958 80.267C 70.931 79.870995 69.666 79.661995 68.441 79.661995L68.441 79.661995L63.463 79.661995C 61.804 79.661995 61.014 79.161995 60.817 78.05599C 60.778 77.92399 60.778 77.81899 60.778 77.68699L60.778 77.68699L60.778 75.816986C 60.778 75.71198 60.778 75.60599 60.817 75.47498C 61.014 74.63198 61.449 74.39498 62.911003 74.262985L62.911003 74.262985L63.306004 74.236984L75.039 74.236984L75.039 71.498985L63.504 71.498985C 61.845 71.498985 60.976 71.60399 60.186 71.84099C 57.737 72.60499 56.669003 73.81599 56.669003 75.92299L56.669003 75.92299L56.669003 78.318985C 56.669003 80.16299 58.764004 81.74299 62.279003 82.111984C 62.675003 82.136986 63.069004 82.164986 63.464005 82.164986L63.464005 82.164986L67.731 82.164986C 67.889 82.164986 68.047005 82.164986 68.166 82.18999C 69.47 82.29499 70.022 82.53299 70.418 83.00599L70.418 83.00599L70.418 85.40299C 70.418 85.69199 70.221 86.06099 69.826 86.37699C 69.47099 86.69299 68.878 86.90399 68.088 86.95699L68.088 86.95699L67.653 86.982994L56.63 86.982994L56.63 89.72099L56.63 90.458zM100.511 85.692C 100.511 88.509 102.605 90.089005 106.831 90.406C 107.226 90.432 107.621 90.458 108.016 90.458L108.016 90.458L118.722 90.458L118.722 87.72L107.938 87.72C 105.528 87.72 104.62 87.114 104.62 85.665L104.62 85.665L104.62 71.497L100.512 71.497L100.512 85.692zM77.503006 85.834L77.503006 76.069C 77.503006 73.589 79.245 72.084 82.689 71.609L82.689 71.609L90.48801 71.609C 90.88401 71.609 91.240005 71.635 91.63501 71.688C 95.07901 72.163 96.82201 73.667 96.82201 76.148L96.82201 76.148L96.82201 85.913C 96.82201 87.927 96.08201 89.003 94.37701 89.705L94.37701 89.705L98.425 93.358L93.65401 93.358L90.380005 90.402L87.08401 90.611L82.68901 90.611L94.37701 89.705L98.425 93.358L93.65401 93.358L90.380005 90.402L87.08401 90.611L82.68901 90.611C 80.07601 89.899 78.80901 88.526 78.80901 86.256zM81.937004 85.597C 81.937004 85.729004 81.976006 85.862 82.01601 86.02C 82.253006 87.155 83.323006 87.787994 84.94501 87.787994L84.94501 87.787994L88.67701 87.787994L85.24901 84.69299L90.020004 84.69299L93.009 87.39299C 93.561005 87.09799 93.923004 86.649994 94.05 86.07299C 94.089005 85.94099 94.089005 85.80899 94.089005 85.67699L94.089005 85.67699L94.089005 76.30899C 94.089005 76.20399 94.089005 76.07099 94.05 75.93899C 93.812004 74.88299 92.743004 74.276985 91.16 74.276985L91.16 74.276985L84.944 74.276985C 83.124 74.276985 81.936 75.068985 81.936 76.30898L81.936 76.30898L81.936 85.596985z" stroke="none" fill="#E48E00" fill-rule="nonzero" />
    <path d="M122.336 66.952C 119.811 66.883 117.881996 67.118004 116.231995 67.813C 115.76299 68.011 115.01599 68.01601 114.939995 68.603004C 115.197 68.87401 115.23699 69.27701 115.44199 69.609C 115.83599 70.246 116.50099 71.1 117.093994 71.547005C 117.741 72.036 118.409 72.560005 119.104996 72.984C 120.34 73.738 121.71999 74.168 122.910995 74.922005C 123.61199 75.368004 124.308 75.928 124.993 76.43101C 125.33199 76.67801 125.558 77.06501 125.99899 77.22001L125.99899 77.22001L125.99899 77.14901C 125.76799 76.85501 125.70799 76.45101 125.495995 76.14301L125.495995 76.14301L124.562 75.209015C 123.648994 73.99702 122.491 72.93401 121.257996 72.05002C 120.27599 71.34502 118.077995 70.39202 117.668 69.249016L117.668 69.249016L117.596 69.17802C 118.292 69.099014 119.108 68.847015 119.75 68.67502C 120.83 68.38502 121.795 68.46002 122.91 68.17202L122.91 68.17202L124.41801 67.74002L124.41801 67.45402C 123.855 66.876015 123.452 66.110016 122.838005 65.58702C 121.231 64.21802 119.475006 62.85002 117.66801 61.70802C 116.66601 61.07602 115.42701 60.66502 114.364006 60.12902C 114.008 59.94802 113.380005 59.855022 113.143005 59.55402C 112.58401 58.84302 112.281006 57.94202 111.850006 57.11302C 111.30601 55.868023 110.950005 54.640022 110.271 53.52302C 107.01 48.16202 103.5 44.92602 98.063 41.74602C 96.906006 41.069023 95.513 40.80302 94.04201 40.45402L94.04201 40.45402L91.672005 40.31002C 91.191 40.10902 90.689 39.51902 90.23601 39.23302C 88.434006 38.09502 83.81401 35.62002 82.48001 38.87502C 81.63801 40.92902 83.74001 42.933018 84.49101 43.97402C 85.01801 44.704018 85.694016 45.52202 86.071014 46.343018C 86.319016 46.88302 86.361015 47.42402 86.57401 47.995018C 87.09502 49.401016 87.55001 50.93202 88.22501 52.231018C 88.56602 52.88902 88.943016 53.58202 89.374016 54.170017C 89.638016 54.530018 90.09202 54.690018 90.16302 55.247017C 89.72002 55.867016 89.694016 56.831017 89.445015 57.616016C 88.32301 61.155018 88.74602 65.554016 90.37901 68.17302C 90.88001 68.97802 92.06001 70.70202 93.682014 70.040016C 95.10101 69.46201 94.78501 67.67101 95.19102 66.09002C 95.28302 65.73302 95.22602 65.46902 95.40601 65.22902L95.40601 65.22902L95.40601 65.30102L96.69901 67.88602C 97.65601 69.42702 99.35301 71.03602 100.792015 72.12302C 101.53802 72.68602 102.126015 73.66102 103.09001 73.99001L103.09001 73.99001L103.09001 73.917015L103.01901 73.917015C 102.83101 73.626015 102.540016 73.50601 102.30001 73.27101C 101.738014 72.72001 101.113014 72.03601 100.64901 71.404015C 99.34001 69.62801 98.18401 67.683014 97.13001 65.65901C 96.627014 64.69301 96.19001 63.62701 95.766014 62.643013C 95.60201 62.26401 95.60401 61.690014 95.264015 61.495014C 94.79801 62.215015 94.11501 62.798016 93.75501 63.649014C 93.181015 65.00901 93.10701 66.668015 92.89401 68.388016L92.89401 68.388016L92.750015 68.459015C 91.749016 68.21802 91.39802 67.18801 91.02602 66.305016C 90.08601 64.072014 89.91102 60.475014 90.73901 57.904015C 90.95301 57.238014 91.92001 55.143013 91.528015 54.528015C 91.34102 53.915016 90.724014 53.561016 90.38001 53.091015C 89.610016 51.350014 89.251015 49.395016 88.44201 47.634014C 88.05401 46.792015 87.40001 45.941013 86.86201 45.193016C 86.267006 44.363014 85.600006 43.753017 85.13801 42.751015C 84.97401 42.395016 84.75101 41.824017 84.99401 41.458015C 85.071014 41.211014 85.182014 41.108017 85.42601 41.027016C 85.84201 40.706017 87.00201 41.134014 87.43601 41.314014C 88.58801 41.793015 89.54901 42.248016 90.52501 42.894016C 90.99301 43.205017 91.46601 43.805016 92.03301 43.971016L92.03301 43.971016L92.679016 43.971016C 93.69002 44.203014 94.82301 44.042015 95.76701 44.329018C 97.43701 44.837017 98.933014 45.62602 100.291016 46.484016C 104.430016 49.098015 107.81302 52.818016 110.12901 57.256016C 110.501015 57.971016 110.66301 58.652016 110.99001 59.410015C 111.652016 60.938015 112.486015 62.511017 113.14401 64.00601C 113.80101 65.49701 114.44201 67.002014 115.37101 68.24301C 115.85901 68.89501 117.74501 69.24501 118.60201 69.60701C 119.20301 69.86101 120.18701 70.12601 120.75601 70.46801C 121.84301 71.12401 122.89701 71.90501 123.916016 72.62301C 124.42502 72.98501 125.99201 73.77201 126.070015 74.421005L126.070015 74.421005L122.336 66.952zM90.237 39.593L90.237 39.663998L90.309 39.663998C 90.56 40.180996 91.003 40.512997 91.313995 40.956997L91.313995 40.956997L92.033 42.464996L92.104 42.393997C 92.548996 42.080997 92.752 41.579998 92.75 40.813995C 92.571 40.625996 92.545 40.390995 92.391 40.167995C 92.187 39.867996 91.789 39.699997 91.53 39.448994z" stroke="none" fill="#00618A" fill-rule="nonzero" />
</g>
</svg>