<?xml version="1.0" standalone="no"?>
<!DOCTYPE svg PUBLIC "-//W3C//DTD SVG 1.0//EN" "http://www.w3.org/TR/2001/REC-SVG-20010904/DTD/svg10.dtd">
<svg xmlns="http://www.w3.org/2000/svg" xmlns:xlink="http://www.w3.org/1999/xlink" id="body_1" width="41" height="31">

<defs>
    <linearGradient transform="matrix(0.563 0 -0 -0.568 -29.215 707.817)"  id="1" x1="70.252" y1="1237.476" x2="170.659" y2="1151.089">
        <stop stop-color="#5A9FD4" offset="0%"/>
        <stop stop-color="#306998" offset="100%"/>
    </linearGradient>
    <linearGradient transform="matrix(0.563 0 -0 -0.568 -29.215 707.817)"  id="259" x1="209.474" y1="1098.811" x2="173.62" y2="1149.537">
        <stop stop-color="#FFD43B" offset="0%"/>
        <stop stop-color="#FFE873" offset="100%"/>
    </linearGradient>
    <radialGradient cx="98.55632%" cy="99.522156%" r="127.08077%" gradientUnits="objectBoundingBox" id="519">
        <stop offset="0%" stop-color="#B8B8B8" stop-opacity="2"/>
        <stop offset="100%" stop-color="#7F7F7F" stop-opacity="0"/>
    </radialGradient>
<mask id="785">
<path  transform="matrix(-0 -0.24 -1.055 -0 532.979 557.576)"   d="M1852.421 444.45C 1852.421 451.53998 1849.6014 458.3468 1844.5881 463.36017C 1839.5748 468.37354 1832.768 471.19302 1825.678 471.19302C 1818.588 471.19302 1811.7811 468.37354 1806.7678 463.36017C 1801.7545 458.3468 1798.9349 451.53998 1798.9349 444.45C 1798.9349 437.36005 1801.7545 430.55322 1806.7678 425.53986C 1811.7811 420.5265 1818.588 417.707 1825.678 417.707C 1832.768 417.707 1839.5748 420.5265 1844.5881 425.53986C 1849.6014 430.55322 1852.421 437.36005 1852.421 444.45z" fill="white"/>
</mask>
</defs>

<g transform="matrix(0.2421875 0 0 0.2421875 5.000001 -0)">
    <path transform="matrix(1 0 0 1 0 10.26)"  d="M63.391 1.988C 59.169 2.0080001 55.139 2.367 51.591 2.995C 41.141 4.8409996 39.245 8.705 39.245 15.832L39.245 15.832L39.245 25.243L63.938 25.243L63.938 28.380001L29.977 28.380001C 22.800999 28.380001 16.516998 32.693 14.551 40.901C 12.283 50.306 12.183 56.176003 14.551 65.997C 16.306 73.308 20.498 78.516 27.675 78.516L27.675 78.516L36.166 78.516L36.166 67.234C 36.166 59.083 43.217 51.894 51.592 51.894L51.592 51.894L76.257 51.894C 83.123 51.894 88.603004 46.24 88.603004 39.346L88.603004 39.346L88.603004 15.833C 88.603004 9.14 82.957 4.113 76.257 2.9960003C 72.013 2.2900004 67.612 1.9690003 63.391003 1.9880003L63.391003 1.9880003L63.391 1.988zM50.037 9.557C 52.586998 9.557 54.670998 11.674 54.670998 14.278C 54.670998 16.871 52.587997 18.968 50.037 18.968C 47.476997 18.968 45.404 16.871 45.404 14.278C 45.403 11.674 47.476997 9.556999 50.037 9.556999z" stroke="none" fill="url(#1)" />
    <path transform="matrix(1 0 0 1 0 10.26)"  d="M91.682 28.38L91.682 39.346C 91.682 47.846 84.474 55.001 76.256 55.001L76.256 55.001L51.591 55.001C 44.835 55.001 39.245 60.784 39.245 67.55L39.245 67.55L39.245 91.065C 39.245 97.756004 45.063 101.693 51.591 103.612C 59.406998 105.909 66.903 106.325 76.256 103.612C 82.472 101.811 88.602 98.189 88.602 91.065L88.602 91.065L88.602 81.653L63.938 81.653L63.938 78.515L100.95 78.515C 108.126 78.515 110.801994 73.51 113.298 65.996C 115.876 58.261 115.765 50.822002 113.298 40.9C 111.523994 33.755 108.13699 28.379002 100.95 28.379002L100.95 28.379002L91.682 28.379002L91.682 28.38zM77.809 87.927C 80.369995 87.927 82.443 90.024 82.443 92.619C 82.443 95.221 80.369 97.338005 77.809 97.338005C 75.258995 97.338005 73.175995 95.22101 73.175995 92.619C 73.175995 90.024 75.258995 87.927 77.809 87.927z" stroke="none" fill="url(#259)" />
    <path d="M97.309 119.597C 97.309 123.14 82.493 126.013 64.218 126.013C 45.942 126.013 31.126003 123.14 31.126003 119.597C 31.126003 116.053 45.941 113.18 64.218 113.18C 82.493004 113.18 97.309006 116.052 97.309006 119.597L97.309006 119.597L97.309 119.597z" stroke="none" mask="url(#785)" fill="url(#519)"  />
</g>
</svg>