<?xml version="1.0" standalone="no"?>
<!DOCTYPE svg PUBLIC "-//W3C//DTD SVG 1.0//EN" "http://www.w3.org/TR/2001/REC-SVG-20010904/DTD/svg10.dtd">
<svg xmlns="http://www.w3.org/2000/svg" xmlns:xlink="http://www.w3.org/1999/xlink" id="body_1" width="28" height="15">

<g transform="matrix(0.10029501 0 0 0.10029501 0.09312518 -0)">
	<g transform="matrix(1 0 0 1 -120.60861 -220.26018)">
        <path d="M333.32 347.348C 367.189 313.481 372.818 264.202 345.892 237.27798C 318.97 210.35698 269.693 215.98499 235.82599 249.84999C 201.95898 283.716 211.75598 348.418 223.25598 359.91998C 232.54898 369.21298 299.455 381.21298 333.31998 347.348L333.31998 347.348L333.32 347.348z" stroke="none" fill="#F89939" fill-rule="nonzero" />
        <path d="M194.35 298.411C 174.70201 278.763 146.108 275.492 130.483 291.116C 114.862 306.738 118.128006 335.336 137.78 354.981C 157.432 374.63498 194.975 368.94998 201.643 362.276C 207.039 356.889 214.004 318.061 194.35 298.411z" stroke="none" fill="#3499CD" fill-rule="nonzero" />
	</g>
	<g transform="matrix(1 0 0 1 -120.60861 -220.26018)">
		<g>
            <path d="M262.143 339.047C 258.672 342.242 255.627 344.6 253.01001 346.115C 250.393 347.63498 247.897 348.39398 245.522 348.39398C 242.79001 348.39398 240.586 347.335 238.91501 345.21597C 237.24101 343.09497 236.40701 340.25098 236.40701 336.67297C 236.40701 331.31198 237.56902 324.87598 239.893 317.37198C 242.21301 309.86197 245.03801 302.942 248.356 296.611L248.356 296.611L258.085 293.009C 258.38998 292.907 258.62198 292.855 258.776 292.855C 259.514 292.855 260.124 293.39902 260.592 294.48203C 261.065 295.57004 261.303 297.032 261.303 298.87003C 261.303 304.07904 260.104 309.12204 257.70102 313.99902C 255.29903 318.87802 251.54701 324.08502 246.44102 329.62604C 246.23602 332.28204 246.13402 334.10605 246.13402 335.10303C 246.13402 337.32602 246.54202 339.08502 247.35902 340.38803C 248.17702 341.69302 249.26102 342.34103 250.61502 342.34103C 251.99602 342.34103 253.46303 341.84705 255.02103 340.85104C 256.57602 339.85306 258.95102 337.78705 262.14203 334.64404L262.14203 334.64404L262.14203 339.04706L262.143 339.047zM247.475 324.074C 250.71701 320.469 253.35 316.426 255.36601 311.953C 257.38202 307.478 258.389 303.629 258.389 300.404C 258.389 299.464 258.25 298.69998 257.971 298.12598C 257.69 297.55096 257.33002 297.26196 256.897 297.26196C 255.95601 297.26196 254.58101 299.61395 252.78 304.31897C 250.979 309.02298 249.211 315.60898 247.475 324.07397z" stroke="none" fill="#010101" fill-rule="nonzero" />
            <path d="M290.795 339.047C 287.553 342.242 284.643 344.6 282.06302 346.115C 279.48303 347.63498 276.639 348.39398 273.52203 348.39398C 270.04904 348.39398 267.24704 347.283 265.11203 345.064C 262.98102 342.839 261.91702 339.918 261.91702 336.291C 261.91702 330.879 263.79202 325.982 267.55002 321.603C 271.30002 317.222 275.46402 315.033 280.03403 315.033C 282.40903 315.033 284.30902 315.64798 285.74103 316.873C 287.17102 318.09998 287.88602 319.707 287.88602 321.69897C 287.88602 326.98596 282.269 331.27298 271.03403 334.56796C 272.05402 339.54495 274.72202 342.03696 279.03802 342.03696C 280.72403 342.03696 282.33102 341.58395 283.86203 340.67996C 285.39703 339.77197 287.70602 337.75797 290.79602 334.64496L290.79602 334.64496L290.79602 339.04697L290.795 339.047zM270.725 331.96298C 277.26 330.123 280.53 326.72897 280.53 321.775C 280.53 319.324 279.635 318.099 277.85 318.099C 276.164 318.099 274.557 319.38 273.026 321.949C 271.49 324.514 270.725 327.85 270.725 331.963z" stroke="none" fill="#010101" fill-rule="nonzero" />
            <path d="M331.701 339.047C 327.615 342.928 324.69098 345.45898 322.931 346.635C 321.169 347.80902 319.484 348.39502 317.874 348.39502C 313.839 348.39502 311.938 344.834 312.167 337.709C 309.61398 341.359 307.257 344.053 305.099 345.79303C 302.943 347.52902 300.716 348.39502 298.415 348.39502C 296.17102 348.39502 294.263 347.34402 292.69 345.23703C 291.117 343.13004 290.336 340.54602 290.336 337.47903C 290.336 333.65103 291.387 329.99902 293.492 326.52405C 295.601 323.05106 298.301 320.24506 301.594 318.10004C 304.887 315.95505 307.801 314.88104 310.326 314.88104C 313.51898 314.88104 315.754 316.35004 317.03098 319.28503L317.03098 319.28503L324.85898 314.95905L327.007 314.95905L323.62598 326.18005C 321.88998 331.82504 321.01898 335.69406 321.01898 337.78705C 321.01898 339.98206 321.796 341.08005 323.35498 341.08005C 324.347 341.08005 325.44498 340.55106 326.64597 339.49005C 327.84695 338.42905 329.52896 336.81406 331.69897 334.64404L331.69897 334.64404L331.69897 339.04706L331.701 339.047zM303.664 341.156C 306.217 341.156 308.62302 338.98 310.887 334.627C 313.147 330.272 314.276 326.25403 314.276 322.578C 314.276 321.15 313.954 320.031 313.319 319.228C 312.678 318.421 311.823 318.021 310.753 318.021C 308.198 318.021 305.776 320.191 303.495 324.533C 301.21 328.875 300.065 332.871 300.065 336.51898C 300.065 337.9 300.405 339.01697 301.081 339.873C 301.757 340.72897 302.615 341.15598 303.664 341.15598z" stroke="none" fill="#010101" fill-rule="nonzero" />
            <path d="M360.314 339.047C 353.904 345.328 348.962 348.471 345.49 348.471C 343.931 348.471 342.615 347.81302 341.54498 346.502C 340.47498 345.186 339.93597 343.557 339.93597 341.61502C 339.93597 338.015 341.86597 333.191 345.72098 327.13803C 343.83 328.10904 341.76398 328.78302 339.516 329.16702C 337.856 332.23102 335.25 335.52603 331.702 339.04602L331.702 339.04602L330.823 339.04602L330.823 335.60303C 332.813 333.53503 334.61398 331.31204 336.223 328.93704C 334.024 327.96603 332.92798 326.52304 332.92798 324.61105C 332.92798 322.64206 333.59598 320.54306 334.93997 318.30606C 336.27997 316.07407 338.12396 314.95807 340.47498 314.95807C 342.46698 314.95807 343.46097 315.97607 343.46097 318.02008C 343.46097 319.6291 342.88696 321.9261 341.73596 324.91507C 345.97397 324.45407 349.67697 321.21408 352.84497 315.18607L352.84497 315.18607L356.32898 315.03207L352.76697 324.83707C 351.28696 328.97406 350.32898 331.79205 349.89597 333.28406C 349.46295 334.77606 349.24396 336.10007 349.24396 337.24707C 349.24396 338.32108 349.49396 339.17908 349.98996 339.81308C 350.48795 340.4561 351.15997 340.7721 352.00195 340.7721C 352.91995 340.7721 353.80295 340.4581 354.64496 339.8361C 355.48697 339.20508 357.37695 337.47708 360.31497 334.6431L360.31497 334.6431L360.31497 339.0471L360.314 339.047z" stroke="none" fill="#010101" fill-rule="nonzero" />
            <path d="M397.928 339.047C 392.03 345.281 386.971 348.395 382.76 348.395C 381.049 348.395 379.67 347.79498 378.62302 346.594C 377.574 345.395 377.05103 343.787 377.05103 341.77C 377.05103 339.038 378.17603 334.862 380.424 329.24698C 381.62302 326.23297 382.225 324.31497 382.225 323.50098C 382.225 322.68298 381.903 322.274 381.268 322.274C 380.911 322.274 380.436 322.45398 379.85 322.809C 379.311 323.166 378.686 323.668 377.971 324.305C 377.334 324.891 376.617 325.606 375.82602 326.44598C 375.135 327.167 374.394 327.98297 373.60703 328.899L373.60703 328.899L371.459 331.391C 370.51602 332.539 369.928 333.75 369.699 335.02798C 369.314 337.198 369.06 339.192 368.931 341.007C 368.853 342.357 368.816 344.181 368.816 346.48398L368.816 346.48398L360.351 348.472C 360.07202 345.025 359.92902 342.45798 359.92902 340.775C 359.92902 336.664 360.40802 332.76898 361.367 329.093C 362.324 325.413 363.861 321.279 365.982 316.681L365.982 316.681L375.326 314.882C 373.361 320.16898 372.072 324.32898 371.45898 327.366C 375.64697 322.694 378.96698 319.46 381.42798 317.65698C 383.88498 315.856 386.07297 314.96 387.985 314.96C 389.284 314.96 390.37 315.44998 391.235 316.431C 392.10397 317.413 392.53598 318.646 392.53598 320.12C 392.53598 322.569 391.438 326.604 389.245 332.224C 387.737 336.078 386.983 338.579 386.983 339.734C 386.983 341.271 387.61002 342.039 388.864 342.039C 390.73102 342.039 393.755 339.574 397.928 334.646L397.928 334.646L397.928 339.047z" stroke="none" fill="#010101" fill-rule="nonzero" />
		</g>
	</g>
	<text transform="matrix(1 0 0 1 0 0)" x="153.3328" y="81.94594" style="fill:#FFFFFF;font-family:ABeeZee;" font-size="23.0795">
scikit
	</text>
</g>
</svg>